<?xml version="1.0" encoding="UTF-8"?>
<svg xmlns="http://www.w3.org/2000/svg" xmlns:xlink="http://www.w3.org/1999/xlink" width="97pt" height="23pt" viewBox="0 0 97 23" version="1.1">
<g id="surface1">
<path style=" stroke:none;fill-rule:evenodd;fill:rgb(100%,98.431373%,98.431373%);fill-opacity:1;" d="M 10.625 18.519531 L 13.183594 18.519531 L 13.183594 6.136719 L 10.625 6.136719 Z M 4.46875 1.140625 L 0 1.140625 L 0.0351562 18.570312 L 2.816406 18.570312 L 2.816406 12.730469 L 4.4375 12.730469 C 4.4375 12.730469 9.167969 12.976562 9.105469 6.75 C 9.039062 0.902344 4.46875 1.140625 4.46875 1.140625 Z M 5.484375 9.269531 C 4.945312 9.707031 4.339844 9.683594 4.339844 9.683594 L 2.816406 9.683594 L 2.816406 4.171875 L 4.4375 4.171875 C 4.4375 4.171875 5.484375 4.097656 6.023438 5.25 C 6.203125 5.628906 6.285156 6.144531 6.316406 6.84375 C 6.367188 8.183594 5.945312 8.898438 5.484375 9.269531 Z M 11.914062 0.574219 C 11.050781 0.574219 10.394531 1.46875 10.394531 2.679688 C 10.394531 3.894531 11.066406 4.878906 11.933594 4.878906 C 12.800781 4.878906 13.472656 3.894531 13.472656 2.679688 C 13.472656 1.46875 12.789062 0.574219 11.914062 0.574219 Z M 21.148438 6.175781 C 20.066406 5.671875 19.121094 6.066406 18.492188 6.546875 C 17.945312 6.976562 17.652344 7.484375 17.652344 7.484375 C 17.652344 7.484375 17.609375 7.304688 17.550781 7.0625 C 17.5 6.835938 17.441406 6.546875 17.324219 6.363281 C 17.171875 6.101562 16.839844 6.128906 16.839844 6.128906 L 15.285156 6.128906 L 15.285156 18.511719 L 17.84375 18.511719 L 17.808594 9.867188 C 17.808594 9.867188 18.570312 8.484375 19.65625 8.789062 C 20.480469 9.023438 20.464844 10.421875 20.464844 10.421875 L 20.464844 18.519531 L 23.023438 18.519531 L 23.023438 10.246094 C 23.023438 10.246094 23.03125 9.210938 22.667969 8.140625 C 22.398438 7.355469 21.914062 6.539062 21.148438 6.175781 Z M 30.410156 5.570312 C 29.210938 5.453125 27.753906 5.417969 26.621094 6.136719 C 25.613281 6.757812 24.914062 8.207031 24.617188 9.917969 C 24.488281 10.625 24.394531 12.648438 24.652344 14.308594 C 24.847656 15.605469 25.304688 16.582031 25.878906 17.207031 C 26.765625 18.15625 28.058594 18.375 29.054688 18.234375 C 30.007812 18.097656 30.671875 17.628906 30.671875 17.628906 C 30.671875 17.628906 30.71875 18.417969 30.445312 19.167969 C 30.257812 19.691406 29.890625 20.1875 29.34375 20.433594 C 28.578125 20.769531 27.324219 20.644531 26.433594 20.433594 C 25.714844 20.253906 25.269531 20.011719 25.269531 20.011719 L 25.269531 22.632812 C 25.269531 22.632812 26.066406 23.050781 27.210938 23.195312 C 28.386719 23.339844 29.925781 23.1875 30.9375 22.539062 C 31.601562 22.109375 32.058594 21.542969 32.363281 20.855469 C 32.742188 19.996094 32.855469 19.277344 32.914062 18.5625 C 32.964844 17.90625 32.976562 17.207031 32.976562 17.207031 L 32.976562 6.042969 C 32.96875 6.042969 31.859375 5.714844 30.410156 5.570312 Z M 30.667969 14.871094 C 30.667969 14.871094 29.199219 16.042969 27.847656 15.335938 C 27.066406 14.921875 26.738281 13.632812 26.714844 11.832031 C 26.691406 10.203125 27.152344 9.015625 27.8125 8.511719 C 28.953125 7.652344 30.660156 8.417969 30.660156 8.417969 L 30.660156 14.871094 Z M 30.667969 14.871094 "/>
<path style=" stroke:none;fill-rule:evenodd;fill:rgb(98.039216%,98.039216%,100%);fill-opacity:1;" d="M 52.894531 6.335938 C 53.285156 5.34375 53.898438 4.59375 54.566406 4.257812 C 55.183594 3.945312 55.972656 3.820312 56.570312 3.96875 C 57.417969 4.199219 58.007812 4.820312 58.007812 4.820312 C 58.007812 4.820312 58.085938 4.886719 58.179688 4.964844 C 58.320312 5.082031 58.523438 5.21875 58.710938 5.199219 C 58.878906 5.183594 59.015625 5.015625 59.113281 4.871094 C 59.179688 4.777344 59.25 4.6875 59.25 4.6875 L 60.183594 2.890625 C 60.183594 2.890625 59.382812 1.769531 58.078125 1.097656 C 57.171875 0.632812 55.960938 0.480469 54.871094 0.675781 C 53.40625 0.929688 51.835938 1.957031 50.792969 3.792969 C 49.988281 5.226562 49.542969 7.222656 49.457031 9.226562 C 49.34375 11.863281 49.945312 14.339844 51.027344 15.976562 C 52.164062 17.695312 53.804688 18.503906 55.203125 18.527344 C 56.417969 18.554688 57.402344 18.292969 58.144531 17.820312 C 59.425781 16.996094 60.015625 15.738281 60.015625 15.738281 L 58.980469 14.179688 C 58.980469 14.179688 58.761719 13.792969 58.476562 13.800781 C 58.195312 13.808594 57.875 14.222656 57.875 14.222656 C 57.875 14.222656 57.546875 14.636719 57.074219 14.878906 C 56.59375 15.132812 55.929688 15.226562 55.265625 15.117188 C 53.8125 14.878906 52.308594 13.136719 52.359375 9.261719 C 52.371094 8.402344 52.535156 7.257812 52.894531 6.335938 Z M 62.148438 18.285156 L 70.136719 18.285156 L 70.136719 15.074219 L 62.148438 15.074219 Z M 45.8125 2.789062 C 44.992188 1.722656 43.941406 1.046875 42.835938 0.761719 C 42.257812 0.609375 41.660156 0.609375 41.101562 0.617188 C 39.648438 0.640625 37.867188 1.382812 36.558594 3.449219 C 35.511719 5.097656 35 7.5 34.984375 9.304688 C 34.964844 11.132812 35.339844 13.347656 36.1875 14.972656 C 37.300781 17.105469 39.140625 18.476562 41.269531 18.511719 C 43.703125 18.554688 45.386719 17.171875 46.449219 15.394531 C 47.480469 13.667969 47.886719 11.433594 47.886719 9.539062 C 47.886719 8.585938 47.765625 7.289062 47.457031 6.136719 C 47.097656 4.863281 46.53125 3.742188 45.8125 2.789062 Z M 44.140625 13.464844 C 43.496094 14.628906 42.480469 15.117188 41.414062 15.117188 C 40.4375 15.117188 39.484375 14.667969 38.859375 13.652344 C 38.230469 12.621094 37.925781 11.011719 37.925781 9.445312 C 37.925781 7.871094 38.257812 6.328125 38.894531 5.335938 C 39.515625 4.359375 40.425781 3.917969 41.402344 3.917969 C 42.433594 3.917969 43.433594 4.390625 44.074219 5.476562 C 44.667969 6.472656 44.949219 8.003906 44.949219 9.488281 C 44.941406 10.929688 44.683594 12.480469 44.140625 13.464844 Z M 76.484375 0.761719 L 71.671875 18.277344 L 73.976562 18.277344 C 73.976562 18.277344 74.292969 18.277344 74.507812 18.039062 C 74.773438 17.761719 74.84375 17.332031 74.84375 17.332031 L 77.957031 4.308594 L 81.035156 17.339844 C 81.035156 17.339844 81.140625 17.769531 81.332031 17.996094 C 81.539062 18.242188 81.835938 18.285156 81.835938 18.285156 L 84.210938 18.285156 L 79.425781 0.761719 Z M 94.367188 0.761719 L 94.398438 11.855469 L 88.484375 1.28125 C 88.484375 1.28125 88.3125 0.988281 88.113281 0.863281 C 87.925781 0.734375 87.710938 0.769531 87.710938 0.769531 L 86.074219 0.769531 L 86.074219 18.292969 L 88.613281 18.292969 L 88.546875 7.230469 L 94.230469 17.332031 C 94.230469 17.332031 94.527344 17.9375 94.761719 18.132812 C 94.9375 18.277344 95.167969 18.277344 95.167969 18.277344 L 96.902344 18.277344 L 96.902344 0.761719 Z M 62.148438 3.785156 L 70.136719 3.785156 L 70.136719 0.574219 L 62.148438 0.574219 Z M 62.148438 11.292969 L 70.136719 11.292969 L 70.136719 8.082031 L 62.148438 8.082031 Z M 62.148438 11.292969 "/>
</g>
</svg>
